# xmcd CD database file
#
# Track frame offsets:
#	150
#	14600
#	27450
#	39675
#	52300
#	65875
#	79887
#	92250
#	105887
#	116287
#	130887
#
# Disc length: 1928 seconds
#
# Revision: 8
# Processed by: cddbd v1.4PL0 Copyright (c) Steve Scherf et al.
# Submitted via: CDex 1.50Beta7
#
DISCID=9107860b
DTITLE=JOHNNY DARRELL - CALIFORNIA STOP-OVER
DYEAR=1998
DGENRE=Country
TTITLE0=THESE DAYS
TTITLE1=WILLING
TTITLE2=SHE'S HEADED FOR THE COUNTRY
TTITLE3=SING IT LONESOME
TTITLE4=BROTHER RIVER
TTITLE5=MAMA COME N' GET YOUR BABY BOY
TTITLE6=MAE JEAN GOES TO HOLLYWOOD
TTITLE7=BED OF ROSES
TTITLE8=SNOWBLIND FRIEND
TTITLE9=MEANWHILE BACK IN MEMPHIS
TTITLE10=FREEDOM IN THE YARD
EXTD=YEAR: 1998
EXTT0=
EXTT1=
EXTT2=
EXTT3=
EXTT4=
EXTT5=
EXTT6=
EXTT7=
EXTT8=
EXTT9=
EXTT10=
PLAYORDER=
